<svg width="20" height="20" viewBox="0 0 20 20" fill="none" xmlns="http://www.w3.org/2000/svg">
<path d="M10 20C15.5228 20 20 15.5228 20 10C20 4.47715 15.5228 0 10 0C4.47715 0 0 4.47715 0 10C0 15.5228 4.47715 20 10 20Z" fill="#F7931A"/>
<path d="M14.4931 8.76262C14.6891 7.45246 13.6916 6.74815 12.3276 6.27831L12.77 4.50354L11.6897 4.23431L11.2589 5.96231C10.9749 5.89154 10.6833 5.82477 10.3934 5.75862L10.8273 4.01923L9.74756 3.75L9.30479 5.52415C9.06971 5.47062 8.83895 5.41769 8.61495 5.362L8.61618 5.35646L7.12633 4.98446L6.83895 6.13831C6.83895 6.13831 7.64048 6.322 7.62356 6.33338C8.0611 6.44262 8.14018 6.73215 8.12695 6.96169L7.62295 8.98354C7.6531 8.99123 7.69218 9.00231 7.73525 9.01954C7.69925 9.01062 7.66079 9.00077 7.6211 8.99123L6.91464 11.8235C6.8611 11.9565 6.72541 12.1558 6.41956 12.0802C6.43033 12.0958 5.63433 11.8842 5.63433 11.8842L5.09802 13.1208L6.50387 13.4712C6.76541 13.5368 7.02171 13.6054 7.27402 13.67L6.82695 15.4651L7.90602 15.7343L8.34879 13.9583C8.64356 14.0383 8.92971 14.1122 9.20971 14.1817L8.76848 15.9494L9.84879 16.2186L10.2959 14.4269C12.138 14.7755 13.5233 14.6349 14.1063 12.9688C14.5762 11.6272 14.0829 10.8534 13.1137 10.3488C13.8196 10.186 14.3513 9.72169 14.4931 8.76262ZM12.0248 12.2238C11.6909 13.5654 9.43218 12.8402 8.69987 12.6583L9.2931 10.2802C10.0254 10.4629 12.3737 10.8248 12.0248 12.2238ZM12.3589 8.74323C12.0543 9.96354 10.1743 9.34354 9.56448 9.19154L10.1023 7.03462C10.7122 7.18662 12.6762 7.47031 12.3589 8.74323Z" fill="white"/>
</svg>
